<?xml version="1.0" encoding="UTF-8"?>
<svg width="252px" height="48px" viewBox="0 0 252 48" version="1.1" xmlns="http://www.w3.org/2000/svg" xmlns:xlink="http://www.w3.org/1999/xlink">
    <!-- Generator: Sketch 58 (84663) - https://sketch.com -->
    <title>blue-large</title>
    <desc>Created with Sketch.</desc>
    <g id="Subscription-assets" stroke="none" stroke-width="1" fill="none" fill-rule="evenodd">
        <g id="Maksa-MobilePaylla---editable-Copy" transform="translate(-21.000000, -24.000000)">
            <g id="blue-large" transform="translate(21.000000, 24.000000)">
                <rect id="Background" fill="#5A78FF" x="0" y="0" width="252" height="48" rx="4"></rect>
                <path d="M53.286,30 L51.234,30 C51.1139994,30 51.0300002,29.9640004 50.982,29.892 C50.9339998,29.8199996 50.9279998,29.7240006 50.964,29.604 L54.618,18.048 C54.6420001,17.9639996 54.6869997,17.8950003 54.753,17.841 C54.8190003,17.7869997 54.8879996,17.76 54.96,17.76 L56.796,17.76 C56.8680004,17.76 56.9369997,17.7869997 57.003,17.841 C57.0690003,17.8950003 57.1199998,17.9639996 57.156,18.048 L60,25.338 C60.0240001,25.4100004 60.0659997,25.449 60.126,25.455 C60.1710002,25.4595 60.205875,25.4386877 60.230625,25.3925627 L63.078,18.048 C63.1140002,17.9639996 63.1649997,17.8950003 63.231,17.841 C63.2970003,17.7869997 63.3659996,17.76 63.438,17.76 L65.274,17.76 C65.3460004,17.76 65.4149997,17.7869997 65.481,17.841 C65.5470003,17.8950003 65.5919999,17.9639996 65.616,18.048 L69.198,29.604 C69.2340002,29.7120005 69.2250003,29.8049996 69.171,29.883 C69.1169997,29.9610004 69.0360005,30 68.928,30 L66.75,30 C66.6659996,30 66.5970003,29.9790002 66.543,29.937 C66.4889997,29.8949998 66.4500001,29.8320004 66.426,29.748 L64.104,22.242 C64.0919999,22.1699996 64.0530003,22.134 63.987,22.134 C63.9209997,22.134 63.8760001,22.1699996 63.852,22.242 L61.116,29.694 C61.0799998,29.7900005 61.0290003,29.8649997 60.963,29.919 C60.8969997,29.9730003 60.8160005,30 60.72,30 L59.442,30 C59.3459995,30 59.2680003,29.9760002 59.208,29.928 C59.1629998,29.8919998 59.12475,29.8391252 59.09325,29.7693752 L56.238,22.242 C56.2139999,22.1699996 56.1750003,22.134 56.121,22.134 C56.0669997,22.134 56.0280001,22.1699996 56.004,22.242 L53.628,29.748 C53.6039999,29.8320004 53.5620003,29.8949998 53.502,29.937 C53.4419997,29.9790002 53.3700004,30 53.286,30 Z M77.1793126,28.9734373 L77.118,29.028 C76.6499977,29.4600022 76.1880023,29.7689991 75.732,29.955 C75.2759977,30.1410009 74.7720028,30.234 74.22,30.234 C72.9839938,30.234 71.9370043,29.7750046 71.079,28.857 C70.2209957,27.9389954 69.792,26.8140067 69.792,25.482 C69.792,24.1499933 70.2269957,23.0250046 71.097,22.107 C71.9670043,21.1889954 73.0199938,20.73 74.256,20.73 C74.6880022,20.73 75.0929981,20.8019993 75.471,20.946 C75.7860016,21.0660006 76.1114158,21.2484991 76.4472494,21.4934995 L76.65,21.648 C76.7340004,21.7200004 76.8119996,21.7500001 76.884,21.738 C76.9560004,21.7259999 76.992,21.6660005 76.992,21.558 L76.992,21.288 C76.992,21.1919995 77.0249997,21.1140003 77.091,21.054 C77.1570003,20.9939997 77.2319996,20.964 77.316,20.964 L79.008,20.964 C79.1040005,20.964 79.1849997,20.9969997 79.251,21.063 C79.3170003,21.1290003 79.35,21.2099995 79.35,21.306 L79.35,27.264 C79.35,27.4800011 79.3889996,27.6419995 79.467,27.75 C79.5450004,27.8580005 79.6619992,27.9179999 79.818,27.93 C79.9020004,27.9420001 79.9739997,27.9749997 80.034,28.029 C80.0940003,28.0830003 80.124,28.1459996 80.124,28.218 L80.124,29.784 C80.124,29.8680004 80.0940003,29.9399997 80.034,30 C79.9739997,30.0600003 79.9020004,30.09 79.818,30.09 C79.2419971,30.09 78.7680019,30.0060008 78.396,29.838 C78.0239981,29.6699992 77.736001,29.4120017 77.532,29.064 C77.4719997,28.9679995 77.4090003,28.917 77.343,28.911 C77.2934998,28.9065 77.2389376,28.9273123 77.1793126,28.9734373 L77.1793126,28.9734373 Z M72.258,25.482 C72.258,26.1780035 72.4889977,26.7719975 72.951,27.264 C73.4130023,27.7560025 73.9739967,28.002 74.634,28.002 C75.2940033,28.002 75.8519977,27.7590024 76.308,27.273 C76.7640023,26.7869976 76.992,26.1900035 76.992,25.482 C76.992,24.7739965 76.7640023,24.1770024 76.308,23.691 C75.8519977,23.2049976 75.2940033,22.962 74.634,22.962 C73.9739967,22.962 73.4130023,23.2079975 72.951,23.7 C72.4889977,24.1920025 72.258,24.7859965 72.258,25.482 Z M89.466,30.09 C88.5059952,30.09 87.7740025,29.9280016 87.27,29.604 C86.8079977,29.3069985 86.290544,28.7024625 85.7176256,27.7903761 L84.84,26.346 C84.7799997,26.2499995 84.7170003,26.199 84.651,26.193 C84.5849997,26.187 84.5040005,26.2259996 84.408,26.31 L83.958,26.742 C83.9219998,26.7660001 83.8980001,26.7989998 83.886,26.841 C83.878,26.8690001 83.8726666,26.9089999 83.87,26.9609998 L83.868,29.658 C83.868,29.7420004 83.8350003,29.8199996 83.769,29.892 C83.7029997,29.9640004 83.6220005,30 83.526,30 L81.798,30 C81.7139996,30 81.6390003,29.9670003 81.573,29.901 C81.5069997,29.8349997 81.474,29.7540005 81.474,29.658 L81.474,18.102 C81.474,18.0059995 81.5069997,17.9250003 81.573,17.859 C81.6390003,17.7929997 81.7139996,17.76 81.798,17.76 L83.526,17.76 C83.6220005,17.76 83.7029997,17.7929997 83.769,17.859 C83.8350003,17.9250003 83.868,18.0059995 83.868,18.102 L83.868,23.862 C83.868,23.9820006 83.9099996,24.0509999 83.994,24.069 C84.0780004,24.0870001 84.1619996,24.0480005 84.246,23.952 L86.892,21.198 C86.9640004,21.1259996 87.0389996,21.0690002 87.117,21.027 C87.1950004,20.9849998 87.2639997,20.964 87.324,20.964 L89.124,20.964 C89.2680007,20.964 89.3669997,21.0329993 89.421,21.171 C89.4750003,21.3090007 89.4540005,21.4259995 89.358,21.522 L86.658,24.258 C86.5619995,24.3540005 86.5080001,24.4499995 86.496,24.546 C86.4839999,24.6420005 86.5139996,24.7439995 86.586,24.852 L87.342,26.076 C87.7980023,26.8200037 88.1789985,27.3209987 88.485,27.579 C88.747287,27.800144 89.0249991,27.9265105 89.3181424,27.9581021 L89.466,27.966 C89.5740005,27.966 89.6609997,27.9989997 89.727,28.065 C89.7930003,28.1310003 89.826,28.2179995 89.826,28.326 L89.826,29.748 C89.826,29.8440005 89.7900004,29.9249997 89.718,29.991 C89.6459996,30.0570003 89.5620005,30.09 89.466,30.09 Z M98.43,27.084 C98.43,28.0200047 98.0490038,28.7789971 97.287,29.361 C96.5249962,29.9430029 95.5500059,30.234 94.362,30.234 C93.2219943,30.234 92.2860037,29.9940024 91.554,29.514 C90.8219963,29.0339976 90.4080005,28.398004 90.312,27.606 C90.2879999,27.4379992 90.3029997,27.3270003 90.357,27.273 C90.4110003,27.2189997 90.5039993,27.192 90.636,27.192 L92.274,27.192 C92.3940006,27.192 92.4899996,27.2129998 92.562,27.255 C92.6340004,27.2970002 92.7059996,27.3779994 92.778,27.498 C92.970001,27.8460017 93.2009987,28.0919993 93.471,28.236 C93.7410014,28.3800007 94.073998,28.452 94.47,28.452 C94.9260023,28.452 95.3009985,28.353001 95.595,28.155 C95.8890015,27.956999 96.036,27.7140014 96.036,27.426 C96.036,27.1739987 95.9130012,26.9790007 95.667,26.841 C95.4433625,26.7155448 94.9693174,26.5925707 94.2448522,26.4720745 L93.5401863,26.3566873 C93.0935612,26.2790624 92.7465012,26.2065003 92.499,26.139 C92.1689984,26.0489995 91.8840012,25.9380007 91.644,25.806 C91.235998,25.5899989 90.936001,25.3140017 90.744,24.978 C90.551999,24.6419983 90.456,24.2400023 90.456,23.772 C90.456,22.8359953 90.8069965,22.0950027 91.509,21.549 C92.2110035,21.0029973 93.1679939,20.73 94.38,20.73 C95.388005,20.73 96.2099968,20.9459978 96.846,21.378 C97.4820032,21.8100022 97.895999,22.427996 98.088,23.232 C98.1240002,23.3880008 98.1120003,23.4989997 98.052,23.565 C97.9919997,23.6310003 97.8900007,23.664 97.746,23.664 L96.252,23.664 C96.1319994,23.664 96.0360004,23.6430002 95.964,23.601 C95.8919996,23.5589998 95.8260003,23.4840005 95.766,23.376 C95.6099992,23.0759985 95.4150012,22.8570007 95.181,22.719 C94.9469988,22.5809993 94.6560017,22.512 94.308,22.512 C93.8879979,22.512 93.5490013,22.6019991 93.291,22.782 C93.0329987,22.9620009 92.904,23.1899986 92.904,23.466 C92.904,23.7060012 93.0239988,23.8949993 93.264,24.033 C93.5040012,24.1710007 94.0439958,24.3059993 94.884,24.438 L95.3638137,24.5100001 C95.8104388,24.5820001 96.1574988,24.6539996 96.405,24.726 C96.7350017,24.8220005 97.0199988,24.9299994 97.26,25.05 C97.656002,25.2660011 97.949999,25.5419983 98.142,25.878 C98.334001,26.2140017 98.43,26.6159977 98.43,27.084 Z M106.843313,28.9734373 L106.782,29.028 C106.313998,29.4600022 105.852002,29.7689991 105.396,29.955 C104.939998,30.1410009 104.436003,30.234 103.884,30.234 C102.647994,30.234 101.601004,29.7750046 100.743,28.857 C99.8849957,27.9389954 99.456,26.8140067 99.456,25.482 C99.456,24.1499933 99.8909957,23.0250046 100.761,22.107 C101.631004,21.1889954 102.683994,20.73 103.92,20.73 C104.352002,20.73 104.756998,20.8019993 105.135,20.946 C105.450002,21.0660006 105.775416,21.2484991 106.111249,21.4934995 L106.314,21.648 C106.398,21.7200004 106.476,21.7500001 106.548,21.738 C106.62,21.7259999 106.656,21.6660005 106.656,21.558 L106.656,21.288 C106.656,21.1919995 106.689,21.1140003 106.755,21.054 C106.821,20.9939997 106.896,20.964 106.98,20.964 L108.672,20.964 C108.768,20.964 108.849,20.9969997 108.915,21.063 C108.981,21.1290003 109.014,21.2099995 109.014,21.306 L109.014,27.264 C109.014,27.4800011 109.053,27.6419995 109.131,27.75 C109.209,27.8580005 109.325999,27.9179999 109.482,27.93 C109.566,27.9420001 109.638,27.9749997 109.698,28.029 C109.758,28.0830003 109.788,28.1459996 109.788,28.218 L109.788,29.784 C109.788,29.8680004 109.758,29.9399997 109.698,30 C109.638,30.0600003 109.566,30.09 109.482,30.09 C108.905997,30.09 108.432002,30.0060008 108.06,29.838 C107.687998,29.6699992 107.400001,29.4120017 107.196,29.064 C107.136,28.9679995 107.073,28.917 107.007,28.911 C106.9575,28.9065 106.902938,28.9273123 106.843313,28.9734373 L106.843313,28.9734373 Z M101.922,25.482 C101.922,26.1780035 102.152998,26.7719975 102.615,27.264 C103.077002,27.7560025 103.637997,28.002 104.298,28.002 C104.958003,28.002 105.515998,27.7590024 105.972,27.273 C106.428002,26.7869976 106.656,26.1900035 106.656,25.482 C106.656,24.7739965 106.428002,24.1770024 105.972,23.691 C105.515998,23.2049976 104.958003,22.962 104.298,22.962 C103.637997,22.962 103.077002,23.2079975 102.615,23.7 C102.152998,24.1920025 101.922,24.7859965 101.922,25.482 Z M115.854,30 L113.802,30 C113.681999,30 113.598,29.9640004 113.55,29.892 C113.502,29.8199996 113.496,29.7240006 113.532,29.604 L117.186,18.048 C117.21,17.9639996 117.255,17.8950003 117.321,17.841 C117.387,17.7869997 117.456,17.76 117.528,17.76 L119.364,17.76 C119.436,17.76 119.505,17.7869997 119.571,17.841 C119.637,17.8950003 119.688,17.9639996 119.724,18.048 L122.568,25.338 C122.592,25.4100004 122.634,25.449 122.694,25.455 C122.739,25.4595 122.773875,25.4386877 122.798625,25.3925627 L125.646,18.048 C125.682,17.9639996 125.733,17.8950003 125.799,17.841 C125.865,17.7869997 125.934,17.76 126.006,17.76 L127.842,17.76 C127.914,17.76 127.983,17.7869997 128.049,17.841 C128.115,17.8950003 128.16,17.9639996 128.184,18.048 L131.766,29.604 C131.802,29.7120005 131.793,29.8049996 131.739,29.883 C131.685,29.9610004 131.604001,30 131.496,30 L129.318,30 C129.234,30 129.165,29.9790002 129.111,29.937 C129.057,29.8949998 129.018,29.8320004 128.994,29.748 L126.672,22.242 C126.66,22.1699996 126.621,22.134 126.555,22.134 C126.489,22.134 126.444,22.1699996 126.42,22.242 L123.684,29.694 C123.648,29.7900005 123.597,29.8649997 123.531,29.919 C123.465,29.9730003 123.384,30 123.288,30 L122.01,30 C121.914,30 121.836,29.9760002 121.776,29.928 C121.716,29.8799998 121.668,29.8020005 121.632,29.694 L118.806,22.242 C118.782,22.1699996 118.743,22.134 118.689,22.134 C118.635,22.134 118.596,22.1699996 118.572,22.242 L116.196,29.748 C116.172,29.8320004 116.13,29.8949998 116.07,29.937 C116.01,29.9790002 115.938,30 115.854,30 Z M142.008,25.482 C142.008,26.8260067 141.549005,27.9539954 140.631,28.866 C139.712995,29.7780046 138.564007,30.234 137.184,30.234 C135.815993,30.234 134.670005,29.7780046 133.746,28.866 C132.821995,27.9539954 132.36,26.8260067 132.36,25.482 C132.36,24.1379933 132.818995,23.0100046 133.737,22.098 C134.655005,21.1859954 135.803993,20.73 137.184,20.73 C138.564007,20.73 139.712995,21.1829955 140.631,22.089 C141.549005,22.9950045 142.008,24.1259932 142.008,25.482 Z M134.808,25.482 C134.808,26.1780035 135.041998,26.7719975 135.51,27.264 C135.978002,27.7560025 136.535997,28.002 137.184,28.002 C137.844003,28.002 138.404998,27.7560025 138.867,27.264 C139.329002,26.7719975 139.56,26.1780035 139.56,25.482 C139.56,24.7859965 139.329002,24.1920025 138.867,23.7 C138.404998,23.2079975 137.844003,22.962 137.184,22.962 C136.535997,22.962 135.978002,23.2079975 135.51,23.7 C135.041998,24.1920025 134.808,24.7859965 134.808,25.482 Z M153.204,25.482 C153.204,26.8140067 152.778004,27.9389954 151.926,28.857 C151.073996,29.7750046 150.024006,30.234 148.776,30.234 C148.343998,30.234 147.936002,30.1590008 147.552,30.009 C147.167998,29.8589993 146.760002,29.6100017 146.328,29.262 C146.232,29.1899996 146.151,29.1689998 146.085,29.199 C146.019,29.2290001 145.986,29.3039994 145.986,29.424 L145.986,29.658 C145.986,29.7540005 145.953,29.8349997 145.887,29.901 C145.821,29.9670003 145.746,30 145.662,30 L143.97,30 C143.886,30 143.808,29.9640004 143.736,29.892 C143.664,29.8199996 143.628,29.7420004 143.628,29.658 L143.628,18.102 C143.628,18.0059995 143.664,17.9250003 143.736,17.859 C143.808,17.7929997 143.886,17.76 143.97,17.76 L145.752,17.76 C145.836,17.76 145.911,17.7929997 145.977,17.859 C146.043,17.9250003 146.076,18.0059995 146.076,18.102 L146.076,21.396 C146.076,21.5160006 146.115,21.5879999 146.193,21.612 C146.271,21.6360001 146.369999,21.6060004 146.49,21.522 C146.850002,21.2579987 147.227998,21.0600007 147.624,20.928 C148.020002,20.7959993 148.427998,20.73 148.848,20.73 C150.072006,20.73 151.103996,21.1889954 151.944,22.107 C152.784004,23.0250046 153.204,24.1499933 153.204,25.482 Z M146.004,25.482 C146.004,26.1780035 146.231998,26.7689976 146.688,27.255 C147.144002,27.7410024 147.701997,27.984 148.362,27.984 C149.022003,27.984 149.585998,27.7410024 150.054,27.255 C150.522002,26.7689976 150.756,26.1780035 150.756,25.482 C150.756,24.7859965 150.522002,24.1920025 150.054,23.7 C149.585998,23.2079975 149.022003,22.962 148.362,22.962 C147.713997,22.962 147.159002,23.2079975 146.697,23.7 C146.234998,24.1920025 146.004,24.7859965 146.004,25.482 Z M157.434,18.606 C157.434,18.9780019 157.299001,19.2989986 157.029,19.569 C156.758999,19.8390013 156.438002,19.974 156.066,19.974 C155.693998,19.974 155.373001,19.8390013 155.103,19.569 C154.832999,19.2989986 154.698,18.9780019 154.698,18.606 C154.698,18.2339981 154.832999,17.9130013 155.103,17.643 C155.373001,17.3729986 155.693998,17.238 156.066,17.238 C156.438002,17.238 156.758999,17.3729986 157.029,17.643 C157.299001,17.9130013 157.434,18.2339981 157.434,18.606 Z M156.93,30 L155.148,30 C155.064,30 154.989,29.9670003 154.923,29.901 C154.857,29.8349997 154.824,29.7540005 154.824,29.658 L154.824,21.306 C154.824,21.2099995 154.857,21.1290003 154.923,21.063 C154.989,20.9969997 155.064,20.964 155.148,20.964 L156.93,20.964 C157.026,20.964 157.107,20.9969997 157.173,21.063 C157.239,21.1290003 157.272,21.2099995 157.272,21.306 L157.272,29.658 C157.272,29.7420004 157.239,29.8199996 157.173,29.892 C157.107,29.964 157.026,30 156.93,30 Z M162.582,30.09 C161.357994,30.09 160.497002,29.8530024 159.999,29.379 C159.500998,28.9049976 159.252,28.0920058 159.252,26.94 L159.252,18.102 C159.252,18.0059995 159.285,17.9250003 159.351,17.859 C159.417,17.7929997 159.492,17.76 159.576,17.76 L161.358,17.76 C161.454,17.76 161.535,17.7929997 161.601,17.859 C161.667,17.9250003 161.7,18.0059995 161.7,18.102 L161.7,26.994 C161.7,27.3060016 161.774999,27.5429992 161.925,27.705 C162.075001,27.8670008 162.293999,27.948 162.582,27.948 C162.678,27.948 162.759,27.9809997 162.825,28.047 C162.891,28.1130003 162.924,28.1939995 162.924,28.29 L162.924,29.766 C162.924,29.8500004 162.891,29.9249997 162.825,29.991 C162.759,30.0570003 162.678,30.09 162.582,30.09 Z M172.662,27.588 C172.361999,28.380004 171.813004,29.0189976 171.015,29.505 C170.216996,29.9910024 169.326005,30.234 168.342,30.234 C166.985993,30.234 165.867004,29.7900044 164.985,28.902 C164.102996,28.0139956 163.662,26.8860068 163.662,25.518 C163.662,24.1499932 164.111996,23.0100046 165.012,22.098 C165.912005,21.1859954 167.033993,20.73 168.378,20.73 C169.710007,20.73 170.816996,21.1889954 171.699,22.107 C172.581004,23.0250046 173.022,24.1739931 173.022,25.554 C173.022,25.758001 172.989,25.9079995 172.923,26.004 C172.857,26.1000005 172.752001,26.148 172.608,26.148 L166.416,26.148 C166.344,26.148 166.29,26.1689998 166.254,26.211 C166.218,26.2530002 166.206,26.3099996 166.218,26.382 C166.278,26.8980026 166.514998,27.3239983 166.929,27.66 C167.343002,27.9960017 167.837997,28.164 168.414,28.164 C168.750002,28.164 169.064999,28.0980007 169.359,27.966 C169.594201,27.8603995 169.80444,27.7164006 169.98972,27.5340004 L170.124,27.39 C170.22,27.2819995 170.313,27.2070002 170.403,27.165 C170.493,27.1229998 170.591999,27.102 170.7,27.102 L172.356,27.102 C172.500001,27.102 172.599,27.1469996 172.653,27.237 C172.707,27.3270004 172.71,27.4439993 172.662,27.588 Z M166.29,24.438 C166.266,24.5220004 166.266,24.5849998 166.29,24.627 C166.314,24.6690002 166.362,24.69 166.434,24.69 L170.232,24.69 C170.292,24.69 170.337,24.6750001 170.367,24.645 C170.397,24.6149999 170.406,24.5640004 170.394,24.492 C170.298,23.9999975 170.058002,23.5950016 169.674,23.277 C169.289998,22.9589984 168.846003,22.8 168.342,22.8 C167.861998,22.8 167.430002,22.9529985 167.046,23.259 C166.661998,23.5650015 166.410001,23.9579976 166.29,24.438 Z M177,30 L175.128,30 C175.044,30 174.969,29.9670003 174.903,29.901 C174.837,29.8349997 174.804,29.7540005 174.804,29.658 L174.804,18.102 C174.804,18.0059995 174.837,17.9250003 174.903,17.859 C174.969,17.7929997 175.044,17.76 175.128,17.76 L180.798,17.76 C182.130007,17.76 183.188996,18.1259963 183.975,18.858 C184.761004,19.5900037 185.154,20.5739938 185.154,21.81 C185.154,23.010006 184.728004,23.9939962 183.876,24.762 C183.023996,25.5300038 181.956006,25.914 180.672,25.914 L177.666,25.914 C177.557999,25.914 177.477,25.9439997 177.423,26.004 C177.369,26.0640003 177.342,26.1479995 177.342,26.256 L177.342,29.658 C177.342,29.7420004 177.309,29.8199996 177.243,29.892 C177.177,29.9640004 177.096,30 177,30 Z M177.648,23.826 L180.672,23.826 C181.224003,23.826 181.682998,23.628002 182.049,23.232 C182.415002,22.835998 182.598,22.3680027 182.598,21.828 C182.598,21.2759972 182.421002,20.8170018 182.067,20.451 C181.712998,20.0849982 181.248003,19.902 180.672,19.902 L177.648,19.902 C177.539999,19.902 177.462,19.9289997 177.414,19.983 C177.366,20.0370003 177.342,20.1179995 177.342,20.226 L177.342,23.502 C177.342,23.6100005 177.366,23.6909997 177.414,23.745 C177.462,23.7990003 177.539999,23.826 177.648,23.826 Z M193.585313,28.9734373 L193.524,29.028 C193.055998,29.4600022 192.594002,29.7689991 192.138,29.955 C191.681998,30.1410009 191.178003,30.234 190.626,30.234 C189.389994,30.234 188.343004,29.7750046 187.485,28.857 C186.626996,27.9389954 186.198,26.8140067 186.198,25.482 C186.198,24.1499933 186.632996,23.0250046 187.503,22.107 C188.373004,21.1889954 189.425994,20.73 190.662,20.73 C191.094002,20.73 191.498998,20.8019993 191.877,20.946 C192.192002,21.0660006 192.517416,21.2484991 192.853249,21.4934995 L193.056,21.648 C193.14,21.7200004 193.218,21.7500001 193.29,21.738 C193.362,21.7259999 193.398,21.6660005 193.398,21.558 L193.398,21.288 C193.398,21.1919995 193.431,21.1140003 193.497,21.054 C193.563,20.9939997 193.638,20.964 193.722,20.964 L195.414,20.964 C195.51,20.964 195.591,20.9969997 195.657,21.063 C195.723,21.1290003 195.756,21.2099995 195.756,21.306 L195.756,27.264 C195.756,27.4800011 195.795,27.6419995 195.873,27.75 C195.951,27.8580005 196.067999,27.9179999 196.224,27.93 C196.308,27.9420001 196.38,27.9749997 196.44,28.029 C196.5,28.0830003 196.53,28.1459996 196.53,28.218 L196.53,29.784 C196.53,29.8680004 196.5,29.9399997 196.44,30 C196.38,30.0600003 196.308,30.09 196.224,30.09 C195.647997,30.09 195.174002,30.0060008 194.802,29.838 C194.429998,29.6699992 194.142001,29.4120017 193.938,29.064 C193.878,28.9679995 193.815,28.917 193.749,28.911 C193.6995,28.9065 193.644938,28.9273123 193.585313,28.9734373 L193.585313,28.9734373 Z M188.664,25.482 C188.664,26.1780035 188.894998,26.7719975 189.357,27.264 C189.819002,27.7560025 190.379997,28.002 191.04,28.002 C191.700003,28.002 192.257998,27.7590024 192.714,27.273 C193.170002,26.7869976 193.398,26.1900035 193.398,25.482 C193.398,24.7739965 193.170002,24.1770024 192.714,23.691 C192.257998,23.2049976 191.700003,22.962 191.04,22.962 C190.379997,22.962 189.819002,23.2079975 189.357,23.7 C188.894998,24.1920025 188.664,24.7859965 188.664,25.482 Z M197.79,33.51 C197.706,33.51 197.628,33.4770003 197.556,33.411 C197.484,33.3449997 197.448,33.2640005 197.448,33.168 L197.448,31.71 C197.448,31.6259996 197.481,31.5510003 197.547,31.485 C197.613,31.4189997 197.694,31.386 197.79,31.386 C198.426003,31.386 198.986998,31.2270016 199.473,30.909 C199.959002,30.5909984 200.261999,30.1740026 200.382,29.658 C200.418,29.5379994 200.43,29.4240005 200.418,29.316 C200.406,29.2079995 200.37,29.0820007 200.31,28.938 L196.998,21.45 C196.95,21.3179993 196.956,21.2040005 197.016,21.108 C197.076,21.0119995 197.165999,20.964 197.286,20.964 L199.068,20.964 C199.14,20.964 199.206,20.9909997 199.266,21.045 C199.326,21.0990003 199.38,21.1799995 199.428,21.288 L201.498,26.076 C201.582,26.268001 201.672,26.361 201.768,26.355 C201.864,26.349 201.954,26.250001 202.038,26.058 L204.018,21.252 C204.054,21.1439995 204.099,21.0690002 204.153,21.027 C204.207,20.9849998 204.276,20.964 204.36,20.964 L206.07,20.964 C206.190001,20.964 206.283,21.0089995 206.349,21.099 C206.415,21.1890004 206.424,21.2879995 206.376,21.396 L202.974,29.478 C202.337997,30.9780075 201.636004,32.024997 200.868,32.619 C200.099996,33.213003 199.074006,33.51 197.79,33.51 Z M210.786,30.09 C209.561994,30.09 208.701002,29.8530024 208.203,29.379 C207.704998,28.9049976 207.456,28.0920058 207.456,26.94 L207.456,18.102 C207.456,18.0059995 207.489,17.9250003 207.555,17.859 C207.621,17.7929997 207.696,17.76 207.78,17.76 L209.562,17.76 C209.658,17.76 209.739,17.7929997 209.805,17.859 C209.871,17.9250003 209.904,18.0059995 209.904,18.102 L209.904,26.994 C209.904,27.3060016 209.978999,27.5429992 210.129,27.705 C210.279001,27.8670008 210.497999,27.948 210.786,27.948 C210.882,27.948 210.963,27.9809997 211.029,28.047 C211.095,28.1130003 211.128,28.1939995 211.128,28.29 L211.128,29.766 C211.128,29.8500004 211.095,29.9249997 211.029,29.991 C210.963,30.0570003 210.882,30.09 210.786,30.09 Z M215.574,30.09 C214.349994,30.09 213.489002,29.8530024 212.991,29.379 C212.492998,28.9049976 212.244,28.0920058 212.244,26.94 L212.244,18.102 C212.244,18.0059995 212.277,17.9250003 212.343,17.859 C212.409,17.7929997 212.484,17.76 212.568,17.76 L214.35,17.76 C214.446,17.76 214.527,17.7929997 214.593,17.859 C214.659,17.9250003 214.692,18.0059995 214.692,18.102 L214.692,26.994 C214.692,27.3060016 214.766999,27.5429992 214.917,27.705 C215.067001,27.8670008 215.285999,27.948 215.574,27.948 C215.67,27.948 215.751,27.9809997 215.817,28.047 C215.883,28.1130003 215.916,28.1939995 215.916,28.29 L215.916,29.766 C215.916,29.8500004 215.883,29.9249997 215.817,29.991 C215.751,30.0570003 215.67,30.09 215.574,30.09 Z M221.118,20.73 C221.550002,20.73 221.954998,20.8019993 222.333,20.946 C222.648002,21.0660006 222.973416,21.2484991 223.309249,21.4934995 L223.512,21.648 C223.596,21.7200004 223.674,21.7500001 223.746,21.738 C223.818,21.7259999 223.854,21.6660005 223.854,21.558 L223.854,21.288 C223.854,21.1919995 223.887,21.1140003 223.953,21.054 C224.019,20.9939997 224.094,20.964 224.178,20.964 L225.87,20.964 C225.966,20.964 226.047,20.9969997 226.113,21.063 C226.179,21.1290003 226.212,21.2099995 226.212,21.306 L226.212,27.264 C226.212,27.4800011 226.251,27.6419995 226.329,27.75 C226.407,27.8580005 226.523999,27.9179999 226.68,27.93 C226.764,27.9420001 226.836,27.9749997 226.896,28.029 C226.956,28.0830003 226.986,28.1459996 226.986,28.218 L226.986,29.784 C226.986,29.8680004 226.956,29.9399997 226.896,30 C226.836,30.0600003 226.764,30.09 226.68,30.09 C226.103997,30.09 225.630002,30.0060008 225.258,29.838 C224.885998,29.6699992 224.598001,29.4120017 224.394,29.064 C224.334,28.9679995 224.271,28.917 224.205,28.911 C224.1555,28.9065 224.100938,28.9273123 224.041313,28.9734373 L223.98,29.028 C223.511998,29.4600022 223.050002,29.7689991 222.594,29.955 C222.137998,30.1410009 221.634003,30.234 221.082,30.234 C219.845994,30.234 218.799004,29.7750046 217.941,28.857 C217.082996,27.9389954 216.654,26.8140067 216.654,25.482 C216.654,24.1499933 217.088996,23.0250046 217.959,22.107 C218.829004,21.1889954 219.881994,20.73 221.118,20.73 Z M221.496,22.962 C220.835997,22.962 220.275002,23.2079975 219.813,23.7 C219.350998,24.1920025 219.12,24.7859965 219.12,25.482 C219.12,26.1780035 219.350998,26.7719975 219.813,27.264 C220.275002,27.7560025 220.835997,28.002 221.496,28.002 C222.156003,28.002 222.713998,27.7590024 223.17,27.273 C223.626002,26.7869976 223.854,26.1900035 223.854,25.482 C223.854,24.7739965 223.626002,24.1770024 223.17,23.691 C222.713998,23.2049976 222.156003,22.962 221.496,22.962 Z" id="MaksaMobilePaylla" fill="#FFFFFF" fill-rule="nonzero"></path>
                <g id="Logo-/-monochrome-/-symbol-/-white" transform="translate(22.000000, 11.000000)" fill="#FFFFFF">
                    <g id="Logo_monochrome_lines" transform="translate(0.764706, 0.382353)">
                        <path d="M11.8529412,16.7365084 C13.9709276,16.0910306 15.7627795,15.7664759 17.2284968,15.7628444 C19.6517368,15.7568404 21.6834143,16.2378531 23.3235294,17.2058824 L23.3235294,10.1662664 C21.6750873,9.31267556 19.8125189,8.85702497 17.7358241,8.7993146 C15.6591294,8.74160424 13.6981684,9.16453394 11.8529412,10.0681037 L11.8529412,16.7365084 Z" id="Path-4"></path>
                        <path d="M8.41176471,9.07195384 L11.025752,15.2941176 L11.025752,9.33099477 C12.4029934,8.59349174 13.8610171,8.12085267 15.3998232,7.91307756 C16.9386292,7.70530244 18.6877078,7.73880158 20.6470588,8.01357497 L19.2253774,4.61677985 C17.165744,4.48377212 15.2036939,4.81559182 13.3392269,5.61223896 C11.47476,6.4088861 9.83227258,7.56212439 8.41176471,9.07195384 Z" id="Path-4"></path>
                        <path d="M16.4411765,6.51927915 C16.4411765,5.91889364 16.4411765,5.01831538 16.4411765,3.81754437 C16.4411765,2.55384363 15.4229778,1.52941176 14.1669661,1.52941176 L6.48009274,1.52941176 C5.22408102,1.52941176 4.20588235,2.55384363 4.20588235,3.81754437 L4.20588235,21.8001027 C4.20588235,23.0638034 5.22408102,24.0882353 6.48009274,24.0882353 L14.1669661,24.0882353 C15.4229778,24.0882353 16.4411765,23.0638034 16.4411765,21.8001027 C16.4411765,20.6612641 16.4411765,19.9181304 16.4411765,19.5707018 C16.0923547,19.402244 15.8360101,19.2817348 15.6721426,19.2091741 C15.49909,19.1325464 15.2500546,19.029273 14.9250362,18.899354 C14.9250362,19.3470246 14.9250362,20.3139408 14.9250362,21.8001027 C14.9250362,22.2213363 14.5856367,22.5628136 14.1669661,22.5628136 L6.48009274,22.5628136 C6.06142217,22.5628136 5.72202261,22.2213363 5.72202261,21.8001027 L5.72202261,3.81754437 C5.72202261,3.39631079 6.06142217,3.0548335 6.48009274,3.0548335 L14.1669661,3.0548335 C14.5856367,3.0548335 14.9250362,3.39631079 14.9250362,3.81754437 L14.9250362,6.54837213 C15.2815657,6.5258784 15.5527734,6.51554513 15.7386594,6.51737232 C15.9245455,6.5191995 16.1587178,6.51983512 16.4411765,6.51927915 Z" id="Path-5" fill-rule="nonzero" transform="translate(10.323529, 12.808824) rotate(-22.400000) translate(-10.323529, -12.808824) "></path>
                    </g>
                </g>
            </g>
        </g>
    </g>
</svg>